<?xml version="1.0" encoding="UTF-8"?>
<svg id="Layer_1" xmlns="http://www.w3.org/2000/svg" version="1.1" viewBox="0 0 1366 1176.4">
  <!-- Generator: Adobe Illustrator 30.1.0, SVG Export Plug-In . SVG Version: 2.1.1 Build 136)  -->
  <defs>
    <style>
      .st0 {
        fill: #fff;
      }

      .st1 {
        fill: #f26f23;
      }

      .st2 {
        fill: #be5c20;
      }

      .st3 {
        fill: #1e0d02;
      }
    </style>
  </defs>
  <g>
    <polyline class="st2" points="683 751.9 819.3 751.9 863.1 750.8 893.5 679.7 892.6 658.8 909.2 644.8 956.5 532.1 902.8 291.8 844.3 253 819.8 180 683 104.1"/>
    <polyline class="st1" points="683 104.1 546.2 180 521.7 253 463.2 291.8 409.5 532.1 456.8 644.8 473.4 658.8 472.5 679.7 502.9 750.8 683 751.9"/>
    <g>
      <polygon class="st0" points="615.1 305.4 615.1 402.1 683 467.5 683 527.4 565.3 413.5 565.3 294 683 180 683 240 615.1 305.4"/>
      <polygon class="st0" points="683 651.7 683 711.6 565.3 597.6 565.3 463.5 615.1 511.7 615.1 586.3 683 651.7"/>
    </g>
    <g>
      <polygon class="st0" points="800.7 294 800.7 428.2 750.8 380 750.8 305.4 683 240 683 180 800.7 294"/>
      <polygon class="st0" points="800.7 478.2 800.7 597.6 683 711.6 683 651.7 750.8 586.3 750.8 489.5 683 424.1 683 364.2 800.7 478.2"/>
    </g>
  </g>
  <g>
    <path class="st3" d="M358.4,927.4h-36.1c0-21.6-18.8-35.2-46.7-35.2s-46.5,9.5-46.5,29.8,18.2,21.4,49.2,26l9.5,1.4c34.2,5.1,77.8,11.7,77.8,59s-35.3,63.9-87.3,63.9-89.4-25.4-89.4-68.8h36.1c0,23.2,20.3,37.1,52.9,37.1s50.9-10.2,50.9-32-18.6-23.1-47.1-27.2l-11.9-1.8c-34.2-5-77.5-11.1-77.5-55.9s37.2-63.2,83.8-63.2,82.4,25.4,82.4,67Z"/>
    <path class="st3" d="M531,1015.5c-8.3,35.4-36.2,56.8-73.6,56.8s-78.2-33.4-78.2-82.9,31.1-82.5,77.3-82.5,75.2,32.3,75.2,82.1-.1,7.3-.6,11.4h-116.6c3,26.1,19.1,41.7,43.8,41.7s31.3-9,38.3-26.7h34.4ZM496.4,974.9c-3.8-24.8-17.5-38.1-39.7-38.1s-37.8,14.1-41.7,38.1h81.4Z"/>
    <path class="st3" d="M562.5,940.2h-22.5v-29h22.5v-4c0-38.4,20.4-59,58.4-59s17.3.9,26.7,2.8v28.9c-8-1.5-14.9-2.3-20.8-2.3-20.5,0-30.3,9.7-30.3,29.8v3.8h51.1v29h-49.4v127.8h-35.7v-127.8Z"/>
    <path class="st3" d="M727.2,907c47.2,0,75.3,25.3,75.3,68.1v93h-35.7v-41.1c-7.3,28.2-30.5,45.4-62.4,45.4s-55.3-18.7-55.3-46.8,23.8-46.9,63.2-46.9h54.5v-3.6c0-23.7-15.3-38.3-40.3-38.3s-37.1,11.9-37.1,30.5h-35.6c0-37.1,28.2-60.3,73.4-60.3ZM714.4,1003.7c-19.4,0-29.7,6.7-29.7,19.4s11.4,20.8,31.9,20.8c29.2,0,50.1-15,50.1-35.8v-4.5h-52.4Z"/>
    <path class="st3" d="M858,1068.1h-35.7v-156.8h35.7v52.3c6.5-32.4,24.7-52.3,56.6-52.3h8.2v33.8h-11.8c-40.4,0-53.1,15.5-53.1,48.4v74.7Z"/>
    <path class="st3" d="M930.5,1068.1l73-203.4h53.9l72,203.4h-39.8l-16-47.9h-87.8l-16.3,47.9h-39ZM1062.9,988.3l-32.9-98.3-33.4,98.3h66.3Z"/>
    <path class="st3" d="M1177.3,893.9h-36.8v-36.4h36.8v36.4ZM1176.7,1068.1h-35.7v-156.8h35.7v156.8Z"/>
  </g>
</svg>