<?xml version="1.0" encoding="UTF-8"?>
<svg id="Layer_1" xmlns="http://www.w3.org/2000/svg" version="1.1" viewBox="0 0 1956.2 768">
  <!-- Generator: Adobe Illustrator 30.1.0, SVG Export Plug-In . SVG Version: 2.1.1 Build 136)  -->
  <defs>
    <style>
      .st0 {
        fill: #522e15;
      }

      .st1 {
        fill: #fff;
      }

      .st2 {
        fill: #f26f23;
      }

      .st3 {
        fill: #be5c20;
      }

      .st4 {
        fill: #1e0d02;
      }
    </style>
  </defs>
  <polyline class="st3" points="377.4 621.3 478.3 621.3 510.6 620.5 533.1 567.9 532.5 552.4 544.8 542 579.8 458.7 540 280.8 496.8 252.1 478.6 198.1 377.4 141.9"/>
  <polyline class="st2" points="377.4 141.9 276.2 198.1 258 252.1 214.7 280.8 175 458.7 209.9 542 222.3 552.4 221.6 567.9 244.1 620.5 377.4 621.3"/>
  <g>
    <polygon class="st0" points="327.1 290.9 327.1 362.5 377.4 410.9 377.4 455.2 290.3 370.9 290.3 282.5 377.4 198.1 377.4 242.5 327.1 290.9"/>
    <polygon class="st0" points="377.4 547.1 377.4 591.5 290.3 507.2 290.3 407.9 327.1 443.5 327.1 498.7 377.4 547.1"/>
  </g>
  <g>
    <polygon class="st4" points="464.4 282.5 464.4 381.8 427.6 346.1 427.6 290.9 377.4 242.5 377.4 198.1 464.4 282.5"/>
    <polygon class="st4" points="464.4 418.7 464.4 507.2 377.4 591.5 377.4 547.1 427.6 498.7 427.6 427.2 377.4 378.7 377.4 334.4 464.4 418.7"/>
  </g>
  <g>
    <path class="st1" d="M863.3,463.6h-40.5c0-24.2-21.1-39.5-52.4-39.5s-52.1,10.7-52.1,33.4,20.4,24,55.2,29.2l10.6,1.6c38.3,5.7,87.2,13.2,87.2,66.1s-39.5,71.7-97.9,71.7-100.2-28.5-100.2-77.2h40.5c0,26,22.8,41.5,59.3,41.5s57-11.4,57-35.9-20.9-25.9-52.8-30.5l-13.4-2c-38.3-5.6-86.8-12.4-86.8-62.7s41.7-70.9,93.9-70.9,92.4,28.5,92.4,75.1Z"/>
    <path class="st1" d="M1056.8,562.4c-9.3,39.7-40.6,63.7-82.5,63.7s-87.6-37.4-87.6-92.9,34.8-92.5,86.7-92.5,84.3,36.2,84.3,92.1-.2,8.2-.6,12.8h-130.8c3.3,29.3,21.4,46.8,49.1,46.8s35.1-10.1,42.9-30h38.6ZM1018,516.8c-4.2-27.8-19.6-42.7-44.5-42.7s-42.3,15.8-46.7,42.7h91.2Z"/>
    <path class="st1" d="M1092.1,478h-25.2v-32.5h25.2v-4.5c0-43.1,22.9-66.1,65.5-66.1s19.4,1,29.9,3.1v32.4c-8.9-1.7-16.7-2.6-23.3-2.6-23,0-34,10.8-34,33.4v4.2h57.2v32.5h-55.3v143.3h-40v-143.3Z"/>
    <path class="st1" d="M1276.7,440.7c52.9,0,84.4,28.4,84.4,76.3v104.3h-40v-46.1c-8.2,31.6-34.2,50.9-69.9,50.9s-61.9-21-61.9-52.5,26.7-52.5,70.8-52.5h61.1v-4.1c0-26.5-17.1-42.9-45.2-42.9s-41.5,13.4-41.5,34.2h-39.9c0-41.5,31.6-67.6,82.3-67.6ZM1262.4,549.1c-21.8,0-33.2,7.5-33.2,21.8s12.8,23.4,35.8,23.4c32.7,0,56.2-16.8,56.2-40.1v-5h-58.8Z"/>
    <path class="st1" d="M1423.4,621.3h-40v-175.8h40v58.6c7.3-36.4,27.7-58.6,63.5-58.6h9.2v37.9h-13.2c-45.3,0-59.5,17.4-59.5,54.2v83.7Z"/>
    <path class="st1" d="M1504.7,621.3l81.8-228h60.4l80.7,228h-44.6l-17.9-53.7h-98.4l-18.3,53.7h-43.7ZM1653,531.9l-36.9-110.2-37.4,110.2h74.3Z"/>
    <path class="st1" d="M1781.3,426.1h-41.3v-40.8h41.3v40.8ZM1780.6,621.3h-40v-175.8h40v175.8Z"/>
  </g>
</svg>